<?xml version="1.0" encoding="utf-8"?>
<!-- Generator: Adobe Illustrator 19.0.0, SVG Export Plug-In . SVG Version: 6.00 Build 0)  -->
<svg version="1.1" id="Layer_1" xmlns="http://www.w3.org/2000/svg" xmlns:xlink="http://www.w3.org/1999/xlink" x="0px" y="0px"
	 viewBox="0 0 357.5 395.6" enable-background="new 0 0 357.5 395.6" xml:space="preserve">
<g id="XMLID_35_">
	<g id="XMLID_2_">
		<path id="XMLID_105_" fill="#FF5252" d="M252.2,111.7H294c0.4-2.4,0.6-4.8,0.6-7.2c0-2.5-0.2-4.9-0.6-7.2h-41.8V82.5h36.3
			c-7.4-12.3-20.9-20.5-36.3-20.5c-23.4,0-42.4,19-42.4,42.4c0,23.4,19,42.4,42.4,42.4c15.4,0,28.8-8.2,36.3-20.5h-36.3V111.7z"/>
		<path id="XMLID_104_" fill="#FF5252" d="M105.3,97.3V82.5h36.3c-7.4-12.3-20.9-20.5-36.3-20.5c-23.4,0-42.4,19-42.4,42.4
			c0,23.4,19,42.4,42.4,42.4c15.4,0,28.8-8.2,36.3-20.5h-36.3v-14.7h41.8c0.4-2.4,0.6-4.8,0.6-7.2c0-2.5-0.2-4.9-0.6-7.2H105.3z"/>
		<g id="XMLID_100_" opacity="0.6">
			<path id="XMLID_103_" opacity="0.25" d="M131.7,82.5h9.9c-7.4-12.3-20.9-20.5-36.3-20.5c-1.7,0-3.3,0.1-4.9,0.3
				C113.7,63.9,125.1,71.6,131.7,82.5z"/>
			<path id="XMLID_102_" opacity="0.25" d="M137.2,111.7h9.9c0.4-2.4,0.6-4.8,0.6-7.2c0-2.5-0.2-4.9-0.6-7.2h-9.9
				c0.4,2.4,0.6,4.8,0.6,7.2C137.9,107,137.6,109.4,137.2,111.7z"/>
			<path id="XMLID_101_" opacity="0.25" d="M100.4,146.6c1.6,0.2,3.2,0.3,4.9,0.3c15.4,0,28.8-8.2,36.3-20.5h-9.9
				C125.1,137.4,113.7,145.1,100.4,146.6z"/>
		</g>
		<g id="XMLID_96_" opacity="0.6">
			<path id="XMLID_99_" opacity="0.25" d="M278.6,82.5h9.9c-7.4-12.3-20.9-20.5-36.3-20.5c-1.7,0-3.3,0.1-4.9,0.3
				C260.6,63.9,272,71.6,278.6,82.5z"/>
			<path id="XMLID_98_" opacity="0.25" d="M284.2,111.7h9.9c0.4-2.4,0.6-4.8,0.6-7.2c0-2.5-0.2-4.9-0.6-7.2h-9.9
				c0.4,2.4,0.6,4.8,0.6,7.2C284.8,107,284.6,109.4,284.2,111.7z"/>
			<path id="XMLID_97_" opacity="0.25" d="M247.3,146.6c1.6,0.2,3.2,0.3,4.9,0.3c15.4,0,28.8-8.2,36.3-20.5h-9.9
				C272,137.4,260.6,145.1,247.3,146.6z"/>
		</g>
		<path id="XMLID_92_" fill="#2B2B2B" d="M252.2,47.3c-31.5,0-57.2,25.6-57.2,57.1c0,2.8,0.2,5.5,0.6,8.2l0,0l-16.6,18l-17.2-18l0,0
			c0.4-2.7,0.6-5.4,0.6-8.2c0-31.5-25.6-57.1-57.1-57.1c-24.9,0-46.2,16-54,38.3c-2.1,5.9-3.2,12.2-3.2,18.8
			c0,6.6,1.1,12.9,3.2,18.8c4.8,13.8,14.8,25.2,27.7,31.9c7.9,4.1,16.8,6.4,26.3,6.4c9.5,0,18.4-2.3,26.3-6.4
			c10.7-5.6,19.5-14.5,24.9-25.4l22.6,23l22.6-23c5.4,10.3,14,20,24.3,25.4c7.9,4.1,16.8,6.4,26.3,6.4c9.5,0,18.4-2.3,26.3-6.4
			c18.3-9.5,30.9-28.7,30.9-50.7C309.4,73,283.7,47.3,252.2,47.3z M147.1,111.7h-41.8v14.7h36.3c-7.4,12.3-20.9,20.5-36.3,20.5
			c-23.4,0-42.4-19-42.4-42.4c0-23.4,19-42.4,42.4-42.4c15.4,0,28.8,8.2,36.3,20.5h-36.3v14.7h41.8c0.4,2.4,0.6,4.8,0.6,7.2
			C147.7,107,147.5,109.4,147.1,111.7z M252.2,111.7v14.7h36.3c-7.4,12.3-20.9,20.5-36.3,20.5c-23.4,0-42.4-19-42.4-42.4
			c0-23.4,19-42.4,42.4-42.4c15.4,0,28.8,8.2,36.3,20.5h-36.3v14.7H294c0.4,2.4,0.6,4.8,0.6,7.2c0,2.5-0.2,4.9-0.6,7.2H252.2z"/>
	</g>
	<g id="XMLID_1_">
		<path id="XMLID_91_" fill="#FF5500" d="M252.2,298.3H294c0.4-2.4,0.6-4.8,0.6-7.2c0-2.5-0.2-4.9-0.6-7.2h-41.8v-14.7h36.3
			c-7.4-12.3-20.9-20.5-36.3-20.5c-23.4,0-42.4,19-42.4,42.4c0,23.4,19,42.4,42.4,42.4c15.4,0,28.8-8.2,36.3-20.5h-36.3V298.3z"/>
		<path id="XMLID_90_" fill="#FF5500" d="M105.3,283.8v-14.7h36.3c-7.4-12.3-20.9-20.5-36.3-20.5c-23.4,0-42.4,19-42.4,42.4
			c0,23.4,19,42.4,42.4,42.4c15.4,0,28.8-8.2,36.3-20.5h-36.3v-14.7h41.8c0.4-2.4,0.6-4.8,0.6-7.2c0-2.5-0.2-4.9-0.6-7.2H105.3z"/>
		<g id="XMLID_86_" opacity="0.6">
			<path id="XMLID_89_" opacity="0.25" d="M131.7,269.1h9.9c-7.4-12.3-20.9-20.5-36.3-20.5c-1.7,0-3.3,0.1-4.9,0.3
				C113.7,250.5,125.1,258.2,131.7,269.1z"/>
			<path id="XMLID_88_" opacity="0.25" d="M137.2,298.3h9.9c0.4-2.4,0.6-4.8,0.6-7.2c0-2.5-0.2-4.9-0.6-7.2h-9.9
				c0.4,2.4,0.6,4.8,0.6,7.2C137.9,293.5,137.6,295.9,137.2,298.3z"/>
			<path id="XMLID_87_" opacity="0.25" d="M100.4,333.2c1.6,0.2,3.2,0.3,4.9,0.3c15.4,0,28.8-8.2,36.3-20.5h-9.9
				C125.1,323.9,113.7,331.6,100.4,333.2z"/>
		</g>
		<g id="XMLID_82_" opacity="0.6">
			<path id="XMLID_85_" opacity="0.25" d="M278.6,269.1h9.9c-7.4-12.3-20.9-20.5-36.3-20.5c-1.7,0-3.3,0.1-4.9,0.3
				C260.6,250.5,272,258.2,278.6,269.1z"/>
			<path id="XMLID_84_" opacity="0.25" d="M284.2,298.3h9.9c0.4-2.4,0.6-4.8,0.6-7.2c0-2.5-0.2-4.9-0.6-7.2h-9.9
				c0.4,2.4,0.6,4.8,0.6,7.2C284.8,293.5,284.6,295.9,284.2,298.3z"/>
			<path id="XMLID_83_" opacity="0.25" d="M247.3,333.2c1.6,0.2,3.2,0.3,4.9,0.3c15.4,0,28.8-8.2,36.3-20.5h-9.9
				C272,323.9,260.6,331.6,247.3,333.2z"/>
		</g>
		<path id="XMLID_77_" fill="#2B2B2B" d="M252.2,233.9c-31.5,0-57.2,25.6-57.2,57.1c0,2.8,0.2,5.5,0.6,8.2l0,0l-16.6,18l-17.2-18
			l0,0c0.4-2.7,0.6-5.4,0.6-8.2c0-31.5-25.6-57.1-57.1-57.1c-24.9,0-46.2,16-54,38.3c-2.1,5.9-3.2,12.2-3.2,18.8
			c0,6.6,1.1,12.9,3.2,18.8c4.8,13.8,14.8,25.2,27.7,31.9c7.9,4.1,16.8,6.4,26.3,6.4c9.5,0,18.4-2.3,26.3-6.4
			c10.7-5.6,19.5-14.5,24.9-25.4l22.6,23l22.6-23c5.4,10.3,14,20,24.3,25.4c7.9,4.1,16.8,6.4,26.3,6.4c9.5,0,18.4-2.3,26.3-6.4
			c18.3-9.5,30.9-28.7,30.9-50.7C309.4,259.5,283.7,233.9,252.2,233.9z M147.1,298.3h-41.8V313h36.3c-7.4,12.3-20.9,20.5-36.3,20.5
			c-23.4,0-42.4-19-42.4-42.4c0-23.4,19-42.4,42.4-42.4c15.4,0,28.8,8.2,36.3,20.5h-36.3v14.7h41.8c0.4,2.4,0.6,4.8,0.6,7.2
			C147.7,293.5,147.5,295.9,147.1,298.3z M252.2,298.3V313h36.3c-7.4,12.3-20.9,20.5-36.3,20.5c-23.4,0-42.4-19-42.4-42.4
			c0-23.4,19-42.4,42.4-42.4c15.4,0,28.8,8.2,36.3,20.5h-36.3v14.7H294c0.4,2.4,0.6,4.8,0.6,7.2c0,2.5-0.2,4.9-0.6,7.2H252.2z"/>
	</g>
</g>
</svg>
